<svg width="1200" height="900" viewBox="0 0 1200 900" fill="none" xmlns="http://www.w3.org/2000/svg">
  <defs>
    <linearGradient id="bg" x1="140" y1="90" x2="1040" y2="780" gradientUnits="userSpaceOnUse">
      <stop stop-color="#07111F"/>
      <stop offset="0.48" stop-color="#0E2237"/>
      <stop offset="1" stop-color="#09131C"/>
    </linearGradient>
    <linearGradient id="panel" x1="196" y1="184" x2="613" y2="641" gradientUnits="userSpaceOnUse">
      <stop stop-color="#102A43"/>
      <stop offset="1" stop-color="#0A1C2C"/>
    </linearGradient>
    <linearGradient id="pipeline" x1="708" y1="162" x2="993" y2="673" gradientUnits="userSpaceOnUse">
      <stop stop-color="#10283D"/>
      <stop offset="1" stop-color="#0D1823"/>
    </linearGradient>
    <linearGradient id="accent" x1="0" y1="0" x2="1" y2="1">
      <stop stop-color="#2DE2E6"/>
      <stop offset="1" stop-color="#7EFFA1"/>
    </linearGradient>
    <linearGradient id="warm" x1="0" y1="0" x2="1" y2="1">
      <stop stop-color="#F97316"/>
      <stop offset="1" stop-color="#FACC15"/>
    </linearGradient>
    <filter id="soft" x="-20%" y="-20%" width="140%" height="140%">
      <feGaussianBlur stdDeviation="18"/>
    </filter>
  </defs>

  <rect width="1200" height="900" rx="40" fill="url(#bg)"/>
  <circle cx="947" cy="124" r="182" fill="#1A6B74" fill-opacity="0.26" filter="url(#soft)"/>
  <circle cx="245" cy="767" r="218" fill="#113D57" fill-opacity="0.18" filter="url(#soft)"/>
  <path d="M0 714C158 651 341 666 513 733C664 792 828 822 1200 694V900H0V714Z" fill="#081018" fill-opacity="0.82"/>

  <text x="92" y="116" fill="#7EFFA1" font-family="Inter, Arial, sans-serif" font-size="24" font-weight="700" letter-spacing="0.24em">AUTOMATECRM</text>
  <text x="92" y="160" fill="white" font-family="Inter, Arial, sans-serif" font-size="56" font-weight="800">CI/CD PIPELINE</text>
  <text x="92" y="204" fill="#94A3B8" font-family="Inter, Arial, sans-serif" font-size="26" font-weight="500">Laravel CRM, Docker, Jenkins, SonarCloud, Terraform, AWS</text>

  <rect x="92" y="258" width="494" height="368" rx="28" fill="url(#panel)" stroke="#1F4B6E" stroke-width="2"/>
  <rect x="126" y="292" width="426" height="44" rx="14" fill="#0D2436"/>
  <circle cx="156" cy="314" r="7" fill="#F97316"/>
  <circle cx="180" cy="314" r="7" fill="#FACC15"/>
  <circle cx="204" cy="314" r="7" fill="#22C55E"/>
  <text x="414" y="321" fill="#7DD3FC" font-family="Inter, Arial, sans-serif" font-size="18" font-weight="700">CRM DASHBOARD</text>

  <rect x="126" y="364" width="174" height="220" rx="22" fill="#0A1A29" stroke="#143754"/>
  <text x="151" y="401" fill="#E2E8F0" font-family="Inter, Arial, sans-serif" font-size="20" font-weight="700">Customers</text>
  <text x="151" y="446" fill="white" font-family="Inter, Arial, sans-serif" font-size="54" font-weight="800">1,284</text>
  <rect x="151" y="470" width="124" height="12" rx="6" fill="#11324A"/>
  <rect x="151" y="493" width="96" height="12" rx="6" fill="#11324A"/>
  <rect x="151" y="532" width="98" height="26" rx="13" fill="#13364B"/>
  <text x="172" y="550" fill="#7EFFA1" font-family="Inter, Arial, sans-serif" font-size="15" font-weight="700">+18.4%</text>

  <rect x="322" y="364" width="230" height="100" rx="22" fill="#0A1A29" stroke="#143754"/>
  <text x="347" y="401" fill="#E2E8F0" font-family="Inter, Arial, sans-serif" font-size="20" font-weight="700">Active Leads</text>
  <path d="M347 436C371 423 390 452 416 434C442 416 459 443 485 428C503 418 521 411 530 422" stroke="url(#accent)" stroke-width="6" stroke-linecap="round"/>
  <circle cx="530" cy="422" r="6" fill="#7EFFA1"/>

  <rect x="322" y="484" width="230" height="100" rx="22" fill="#0A1A29" stroke="#143754"/>
  <text x="347" y="521" fill="#E2E8F0" font-family="Inter, Arial, sans-serif" font-size="20" font-weight="700">Revenue Flow</text>
  <rect x="347" y="540" width="28" height="20" rx="10" fill="#183A52"/>
  <rect x="383" y="528" width="28" height="32" rx="10" fill="#1D5D72"/>
  <rect x="419" y="514" width="28" height="46" rx="10" fill="#2DE2E6"/>
  <rect x="455" y="498" width="28" height="62" rx="10" fill="#7EFFA1"/>
  <rect x="491" y="522" width="28" height="38" rx="10" fill="#FACC15"/>

  <rect x="660" y="258" width="448" height="492" rx="28" fill="url(#pipeline)" stroke="#24445E" stroke-width="2"/>
  <text x="699" y="312" fill="white" font-family="Inter, Arial, sans-serif" font-size="28" font-weight="800">Delivery Pipeline</text>
  <text x="699" y="344" fill="#94A3B8" font-family="Inter, Arial, sans-serif" font-size="20" font-weight="500">Commit to cloud deployment with quality and security gates</text>

  <path d="M883 380V634" stroke="#1E4A60" stroke-width="10" stroke-linecap="round" stroke-dasharray="12 16"/>

  <g>
    <rect x="716" y="372" width="334" height="64" rx="18" fill="#0B1B2A" stroke="#274560"/>
    <circle cx="755" cy="404" r="16" fill="#111827" stroke="#2DE2E6" stroke-width="3"/>
    <text x="744" y="410" fill="#2DE2E6" font-family="Inter, Arial, sans-serif" font-size="18" font-weight="800">G</text>
    <text x="790" y="411" fill="#E2E8F0" font-family="Inter, Arial, sans-serif" font-size="22" font-weight="700">GitHub Push</text>
    <text x="937" y="411" fill="#7EFFA1" font-family="Inter, Arial, sans-serif" font-size="16" font-weight="700">TRIGGER</text>
  </g>

  <g>
    <rect x="716" y="458" width="334" height="64" rx="18" fill="#0B1B2A" stroke="#274560"/>
    <circle cx="755" cy="490" r="16" fill="#1B1008" stroke="#F97316" stroke-width="3"/>
    <text x="745" y="497" fill="#F97316" font-family="Inter, Arial, sans-serif" font-size="17" font-weight="800">J</text>
    <text x="790" y="497" fill="#E2E8F0" font-family="Inter, Arial, sans-serif" font-size="22" font-weight="700">Jenkins Build</text>
    <text x="937" y="497" fill="#FACC15" font-family="Inter, Arial, sans-serif" font-size="16" font-weight="700">TEST</text>
  </g>

  <g>
    <rect x="716" y="544" width="334" height="64" rx="18" fill="#0B1B2A" stroke="#274560"/>
    <circle cx="755" cy="576" r="16" fill="#081B1F" stroke="#7EFFA1" stroke-width="3"/>
    <text x="744" y="582" fill="#7EFFA1" font-family="Inter, Arial, sans-serif" font-size="15" font-weight="800">SQ</text>
    <text x="790" y="583" fill="#E2E8F0" font-family="Inter, Arial, sans-serif" font-size="22" font-weight="700">Sonar + Trivy</text>
    <text x="921" y="583" fill="#2DE2E6" font-family="Inter, Arial, sans-serif" font-size="16" font-weight="700">QUALITY</text>
  </g>

  <g>
    <rect x="716" y="630" width="334" height="64" rx="18" fill="#0B1B2A" stroke="#274560"/>
    <circle cx="755" cy="662" r="16" fill="#0C1720" stroke="#60A5FA" stroke-width="3"/>
    <text x="742" y="668" fill="#60A5FA" font-family="Inter, Arial, sans-serif" font-size="14" font-weight="800">AWS</text>
    <text x="790" y="669" fill="#E2E8F0" font-family="Inter, Arial, sans-serif" font-size="22" font-weight="700">Docker + Terraform Deploy</text>
    <text x="960" y="669" fill="#7EFFA1" font-family="Inter, Arial, sans-serif" font-size="16" font-weight="700">LIVE</text>
  </g>

  <rect x="92" y="684" width="196" height="46" rx="23" fill="#0E2434" stroke="#244960"/>
  <text x="123" y="713" fill="#2DE2E6" font-family="Inter, Arial, sans-serif" font-size="18" font-weight="700">Laravel 9</text>
  <rect x="306" y="684" width="178" height="46" rx="23" fill="#0E2434" stroke="#244960"/>
  <text x="347" y="713" fill="#7EFFA1" font-family="Inter, Arial, sans-serif" font-size="18" font-weight="700">Vue 3</text>
  <rect x="502" y="684" width="118" height="46" rx="23" fill="#0E2434" stroke="#244960"/>
  <text x="534" y="713" fill="#FACC15" font-family="Inter, Arial, sans-serif" font-size="18" font-weight="700">CRM</text>
</svg>